<!DOCTYPE svg PUBLIC "-//W3C//DTD SVG 1.1//EN" "http://www.w3.org/Graphics/SVG/1.1/DTD/svg11.dtd">
<!-- Uploaded to: SVG Repo, www.svgrepo.com, Transformed by: SVG Repo Mixer Tools -->
<svg fill="#34c59f" height="800px" width="800px" version="1.1" id="Layer_1" xmlns="http://www.w3.org/2000/svg" xmlns:xlink="http://www.w3.org/1999/xlink" viewBox="0 0 496.016 496.016" xml:space="preserve" stroke="#34c59f" transform="rotate(270)">
<g id="SVGRepo_bgCarrier" stroke-width="0"/>
<g id="SVGRepo_tracerCarrier" stroke-linecap="round" stroke-linejoin="round"/>
<g id="SVGRepo_iconCarrier"> <g> <g> <path d="M248.016,0C111.264,0,0.008,111.256,0.008,248.004c0,136.752,111.256,248.012,248.008,248.012 c136.744,0,247.992-111.256,247.992-248.012C496.008,111.256,384.76,0,248.016,0z M368.336,363.416 c-3.016,4.808-8.284,7.564-14.452,7.564c-3.904,0-8.26-1.104-12.944-3.284l-218.004-101.4 c-14.396-6.692-15.52-15.58-14.908-20.284c0.604-4.704,3.964-13.008,19.588-15.812l85.516-16.984l14.648-82.592 c2.82-17.884,13.188-19.84,17.516-19.84c5.108,0,12.432,2.564,18.32,14.764l103.836,215.26 C372.864,352.04,370.92,359.3,368.336,363.416z"/> </g> </g> <g> <g> <path d="M342.496,342.584L231.292,231.38c-1.576,1.536-3.584,2.64-5.84,3.092l-81.164,16.12l198.336,92.248L342.496,342.584z"/> </g> </g> </g>
</svg>